# File created by Blade
# Date/Time:  Wed Sep 24 19:25:39 2014
# Frame Rate: 120.000 fps
#------------------------------------------------------
:FULLY-SPECIFIED
:DEGREES
3849
root -16.093578 31.878545 -3.749093 14.232602 15.491186 -10.869823
Spine -17.997393 23.385678 13.796509
Head 1.015978 -12.880610 3.451047
LeftShoulder -20.804022 30.833236 8.765645
LeftArm 10.211128 25.624748 -73.484990
LeftForeArm 12.657253 -0.000000 31.459692
LeftHand -26.166079 -0.000000 -8.348966
LeftHandThumb1 -26.253704 0.000000 33.147579
RightShoulder -18.641219 12.254447 -33.049295
RightArm -15.626041 32.041510 41.918860
RightForeArm 17.541913 -0.000000 126.899196
RightHand -14.765303 -0.000000 -1.984509
RightHandThumb1 -24.326973 -0.000000 -32.862282
LeftUpLeg -11.482590 -14.015264 18.606232
LeftLeg 94.116832 -0.000000 -0.000000
LeftFoot 36.176727 20.081662 -19.039055
LeftToeBase 27.622328 -0.000000 -0.000000
RightUpLeg -11.071105 3.521108 18.749175
RightLeg -1.768522 -0.000000 0.000000
RightFoot -8.812973 -2.992917 -10.331064
RightToeBase -2.833889 -0.000000 0.000000
3850
root -16.098061 31.877014 -3.753104 14.158135 15.777168 -10.873269
Spine -17.921010 23.142943 13.996838
Head 0.874436 -12.871702 3.330847
LeftShoulder -20.812965 30.850141 8.614083
LeftArm 10.755261 25.218102 -73.111636
LeftForeArm 12.554730 -0.000000 32.226094
LeftHand -26.054355 -0.000000 -8.258695
LeftHandThumb1 -26.253704 0.000000 33.147579
RightShoulder -18.669266 12.265136 -33.133180
RightArm -15.603788 32.089810 41.833939
RightForeArm 17.547005 0.000000 126.834808
RightHand -14.696763 -0.000000 -1.861332
RightHandThumb1 -24.326973 -0.000000 -32.862282
LeftUpLeg -11.507754 -12.558332 18.677138
LeftLeg 93.734582 -0.000000 -0.000000
LeftFoot 36.173844 20.124038 -19.176288
LeftToeBase 28.705382 -0.000000 -0.000000
RightUpLeg -11.102369 3.340879 18.804726
RightLeg -1.704212 -0.000000 0.000000
RightFoot -8.857130 -3.122783 -10.320497
RightToeBase -2.804834 -0.000000 0.000000
3851
root -16.104963 31.875337 -3.758532 14.090661 16.075399 -10.899946
Spine -17.857459 22.888870 14.228881
Head 0.750450 -12.852988 3.200825
LeftShoulder -20.811994 30.862132 8.460868
LeftArm 11.282783 24.732959 -72.762446
LeftForeArm 12.438978 -0.000000 33.012738
LeftHand -26.135078 -0.000000 -8.425291
LeftHandThumb1 -26.253704 0.000000 33.147579
RightShoulder -18.689373 12.237692 -33.231807
RightArm -15.550588 32.170075 41.772613
RightForeArm 17.643842 -0.000000 126.760927
RightHand -14.684715 -0.000000 -1.839577
RightHandThumb1 -24.326973 -0.000000 -32.862282
LeftUpLeg -11.558700 -11.007499 18.800497
LeftLeg 93.415909 -0.000000 -0.000000
LeftFoot 36.128802 20.108565 -19.419228
LeftToeBase 28.203526 -0.000000 -0.000000
RightUpLeg -11.157887 3.208756 18.874474
RightLeg -1.624572 -0.000000 0.000000
RightFoot -8.896532 -3.283436 -10.302627
RightToeBase -2.745949 -0.000000 0.000000
3852
root -16.109384 31.874838 -3.765217 14.034337 16.412877 -10.883384
Spine -17.806544 22.589849 14.425317
Head 0.640137 -12.855845 3.052283
LeftShoulder -20.788844 30.822030 8.305394
LeftArm 11.843868 24.360532 -72.354635
LeftForeArm 12.328598 -0.000000 33.694684
LeftHand -26.127501 -0.000000 -7.925340
LeftHandThumb1 -26.253704 0.000000 33.147579
RightShoulder -18.691479 12.413258 -33.391067
RightArm -15.739416 32.142608 41.563066
RightForeArm 17.843880 -0.000000 126.718846
RightHand -14.676529 -0.000000 -1.755965
RightHandThumb1 -24.326973 -0.000000 -32.862282
LeftUpLeg -11.641772 -9.363045 18.865925
LeftLeg 93.112580 -0.000000 -0.000000
LeftFoot 35.948793 20.288102 -19.774216
LeftToeBase 28.406140 -0.000000 -0.000000
RightUpLeg -11.247513 3.040118 18.904211
RightLeg -1.499260 -0.000000 0.000000
RightFoot -8.967206 -3.425194 -10.263344
RightToeBase -2.715367 -0.000000 0.000000
3853
root -16.114412 31.873733 -3.774279 13.992873 16.839027 -10.843112
Spine -17.773432 22.192425 14.618255
Head 0.524907 -12.836845 2.882997
LeftShoulder -20.754110 30.767078 8.136596
LeftArm 12.386132 23.910763 -71.948064
LeftForeArm 12.063920 -0.000000 34.447681
LeftHand -26.165889 -0.000000 -8.401888
LeftHandThumb1 -26.253704 0.000000 33.147579
RightShoulder -18.699106 12.424690 -33.488132
RightArm -15.718523 32.206188 41.434115
RightForeArm 17.842860 -0.000000 126.661806
RightHand -14.685884 -0.000000 -1.751047
RightHandThumb1 -24.326973 -0.000000 -32.862282
LeftUpLeg -11.778294 -7.656578 18.951282
LeftLeg 92.837867 -0.000000 -0.000000
LeftFoot 35.964726 20.443063 -19.961149
LeftToeBase 28.573835 -0.000000 -0.000000
RightUpLeg -11.433917 2.664142 18.968299
RightLeg -1.257084 -0.000000 0.000000
RightFoot -9.143166 -3.498571 -10.123521
RightToeBase -2.715838 -0.000000 0.000000
3854
root -16.115605 31.874147 -3.780951 13.980084 17.189187 -10.817236
Spine -17.797733 21.891592 14.791989
Head 0.472110 -12.809212 2.733161
LeftShoulder -20.716431 30.707492 7.982106
LeftArm 12.961899 23.525954 -71.501031
LeftForeArm 12.147944 -0.000000 35.089144
LeftHand -26.034872 -0.000000 -8.204712
LeftHandThumb1 -26.253704 0.000000 33.147579
RightShoulder -18.733501 12.368975 -33.583702
RightArm -15.647569 32.206289 41.334987
RightForeArm 17.800949 -0.000000 126.612426
RightHand -14.717401 -0.000000 -1.862038
RightHandThumb1 -24.326973 -0.000000 -32.862282
LeftUpLeg -11.902347 -5.717339 19.013384
LeftLeg 92.581080 -0.000000 -0.000000
LeftFoot 35.925662 20.564699 -20.153793
LeftToeBase 28.868722 -0.000000 -0.000000
RightUpLeg -11.565851 2.597067 18.962239
RightLeg -1.131870 -0.000000 0.000000
RightFoot -9.209559 -3.736510 -10.065354
RightToeBase -2.634205 -0.000000 0.000000
3855
root -16.119605 31.872028 -3.787954 13.913988 17.705561 -10.762639
Spine -17.760375 21.425930 15.001462
Head 0.387925 -12.792998 2.555840
LeftShoulder -20.608623 30.617243 7.853693
LeftArm 13.553362 23.167787 -71.070549
LeftForeArm 12.141170 -0.000000 35.735073
LeftHand -26.039520 -0.000000 -8.053206
LeftHandThumb1 -26.253704 0.000000 33.147579
RightShoulder -18.759997 12.361346 -33.688382
RightArm -15.660396 32.255763 41.150434
RightForeArm 17.901323 -0.000000 126.587603
RightHand -14.733005 -0.000000 -1.910893
RightHandThumb1 -24.326973 -0.000000 -32.862282
LeftUpLeg -12.049289 -3.793666 19.126745
LeftLeg 92.407343 -0.000000 -0.000000
LeftFoot 35.798449 20.682012 -20.531775
LeftToeBase 28.926447 -0.000000 -0.000000
RightUpLeg -11.733118 2.195696 19.005659
RightLeg -0.879732 -0.000000 0.000000
RightFoot -9.412069 -3.839844 -10.133473
RightToeBase -2.575493 -0.000000 0.000000
3856
root -16.129286 31.871280 -3.792871 13.834867 18.229046 -10.759860
Spine -17.725824 20.973915 15.258316
Head 0.311115 -12.810074 2.370739
LeftShoulder -20.495611 30.519092 7.698612
LeftArm 14.206003 22.848166 -70.566864
LeftForeArm 12.177926 -0.000000 36.377227
LeftHand -26.067429 -0.000000 -8.158907
LeftHandThumb1 -26.253704 0.000000 33.147579
RightShoulder -18.798446 12.321664 -33.812632
RightArm -15.667089 32.332348 40.981174
RightForeArm 18.018513 -0.000000 126.553996
RightHand -14.740737 -0.000000 -1.880502
RightHandThumb1 -24.326973 -0.000000 -32.862282
LeftUpLeg -12.188809 -1.731386 19.299459
LeftLeg 92.227302 -0.000000 -0.000000
LeftFoot 35.759207 20.761100 -20.733034
LeftToeBase 28.915338 -0.000000 -0.000000
RightUpLeg -11.831247 2.021180 19.067068
RightLeg -0.779369 -0.000000 0.000000
RightFoot -9.436956 -4.156421 -9.985628
RightToeBase -2.567076 -0.000000 0.000000
3857
root -16.134864 31.872240 -3.798383 13.785517 18.815130 -10.695979
Spine -17.739832 20.482563 15.449534
Head 0.265972 -12.877155 2.164421
LeftShoulder -20.339801 30.385653 7.542910
LeftArm 14.852028 22.539374 -70.010551
LeftForeArm 11.968062 0.000000 37.036366
LeftHand -26.059450 0.000000 -8.102733
LeftHandThumb1 -26.253704 0.000000 33.147579
RightShoulder -18.856551 12.258119 -33.919923
RightArm -15.671662 32.401584 40.804158
RightForeArm 18.057822 0.000000 126.550761
RightHand -14.757243 -0.000000 -1.920801
RightHandThumb1 -24.326973 -0.000000 -32.862282
LeftUpLeg -12.372994 0.372957 19.399991
LeftLeg 92.089916 -0.000000 -0.000000
LeftFoot 35.692334 20.966225 -20.999143
LeftToeBase 29.273497 -0.000000 -0.000000
RightUpLeg -11.874081 2.213114 18.979420
RightLeg -0.836264 -0.000000 0.000000
RightFoot -9.333142 -4.894000 -10.023868
RightToeBase -2.484062 -0.000000 0.000000
3858
root -16.152941 31.871408 -3.800815 13.727223 19.471055 -10.665936
Spine -17.776693 19.926660 15.632203
Head 0.188470 -12.939118 2.057997
LeftShoulder -20.138026 30.182978 7.490038
LeftArm 15.467416 22.272283 -69.488463
LeftForeArm 12.004600 -0.000000 37.657503
LeftHand -26.048821 -0.000000 -7.940665
LeftHandThumb1 -26.253704 0.000000 33.147579
RightShoulder -18.941258 12.042676 -33.959404
RightArm -15.534578 32.504109 40.732739
RightForeArm 17.919668 0.000000 126.541464
RightHand -14.795253 -0.000000 -2.204553
RightHandThumb1 -24.326973 -0.000000 -32.862282
LeftUpLeg -12.585140 2.576128 19.584997
LeftLeg 92.013741 -0.000000 -0.000000
LeftFoot 35.667023 21.014010 -21.195396
LeftToeBase 29.270988 -0.000000 -0.000000
RightUpLeg -11.521035 3.151318 18.747852
RightLeg -1.821213 -0.000000 0.000000
RightFoot -8.681702 -6.052249 -9.292401
RightToeBase -2.334791 -0.000000 0.000000
3859
root -16.154112 31.872337 -3.799655 13.636455 20.148168 -10.553351
Spine -17.771450 19.322050 15.800402
Head 0.165690 -12.956464 1.886437
LeftShoulder -19.938400 30.028281 7.349082
LeftArm 16.160061 21.994720 -68.891509
LeftForeArm 11.940897 -0.000000 38.273017
LeftHand -26.095354 -0.000000 -7.571412
LeftHandThumb1 -26.253704 0.000000 33.147579
RightShoulder -19.041682 11.870780 -34.047929
RightArm -15.436347 32.618609 40.639274
RightForeArm 18.051841 0.000000 126.527159
RightHand -14.793799 0.000000 -2.183100
RightHandThumb1 -24.326973 -0.000000 -32.862282
LeftUpLeg -12.731205 4.910250 19.681298
LeftLeg 91.945976 -0.000000 -0.000000
LeftFoot 35.610995 21.147452 -21.404880
LeftToeBase 29.872700 -0.000000 -0.000000
RightUpLeg -11.475503 3.003279 18.689649
RightLeg -1.995188 -0.000000 0.000000
RightFoot -8.584830 -6.582980 -9.269145
RightToeBase -2.295768 -0.000000 0.000000
3860
root -16.183427 31.873816 -3.819988 13.684163 20.939258 -10.522948
Spine -17.913417 18.692826 15.963314
Head 0.049217 -13.017160 1.775222
LeftShoulder -19.666906 29.759334 7.319842
LeftArm 16.775287 21.731398 -68.333305
LeftForeArm 11.779422 -0.000000 38.985154
LeftHand -26.056538 -0.000000 -6.977188
LeftHandThumb1 -26.253704 0.000000 33.147579
RightShoulder -19.132175 11.820879 -34.149617
RightArm -15.520403 32.739599 40.411014
RightForeArm 18.233073 -0.000000 126.535021
RightHand -14.809339 -0.000000 -2.133201
RightHandThumb1 -24.326973 -0.000000 -32.862282
LeftUpLeg -13.159414 7.299626 19.873067
LeftLeg 92.035053 -0.000000 -0.000000
LeftFoot 35.776076 21.004078 -21.287547
LeftToeBase 29.549651 -0.000000 -0.000000
RightUpLeg -11.802721 2.746875 18.776877
RightLeg -1.850590 -0.000000 0.000000
RightFoot -8.598815 -7.083367 -9.317985
RightToeBase -2.207336 -0.000000 0.000000
